<?xml version="1.0" encoding="utf-8"?>
<!-- Generator: Adobe Illustrator 27.0.0, SVG Export Plug-In . SVG Version: 6.00 Build 0)  -->
<svg version="1.1" id="Layer_1" xmlns="http://www.w3.org/2000/svg" xmlns:xlink="http://www.w3.org/1999/xlink" x="0px" y="0px"
	 viewBox="0 0 792 792" style="enable-background:new 0 0 792 792;" xml:space="preserve">
<style type="text/css">
	.st0{fill-rule:evenodd;clip-rule:evenodd;fill:#FFFFFF;}
</style>
<path class="st0" d="M623.9,264.8c7.6-42.7-20.8-76.3-53.9-100.7c-46.3-34.1-98.6-54.4-152.5-70.2l0,0v563.2l0,0
	c23.9-20.8,47.8-44.2,70.7-68.1c48.8-53.9,94-108.8,112.9-174.9c7.6-30,3.6-64.1-21.9-84.4C601,312.6,620.8,291.3,623.9,264.8
	L623.9,264.8L623.9,264.8L623.9,264.8z M530.8,459.5c-16.8,30.5-39.6,58.5-66.6,84.4l0,0l-0.5-161.1l0,0
	c18.3-13.2,37.1-24.9,60-26.9c9.1,0,17.3,3.1,23.4,10.2C567.4,398,543.5,431.6,530.8,459.5L530.8,459.5L530.8,459.5L530.8,459.5z
	 M577.1,252.1c-4.6,25.4-32.5,40.2-52.4,50.8c-19.8,10.2-40.2,18.3-61,25.9l0,0V164.2l0,0c32,9.7,61,25.9,88.5,45.2
	C564.9,220.1,582.2,233.3,577.1,252.1L577.1,252.1L577.1,252.1L577.1,252.1z"/>
<path class="st0" d="M375.8,653.2V92l-45.2,23.4v300.9l0,0c-2,8.6,4.1,21.9-5.6,25.9c-2.5,0.5-4.6-0.5-5.6-2.5
	c-19.3-72.7-27.4-149.5-31-228.2l0,0l-1.5-68.6l-43.2,32v18.3l0,0c2.5,72.7,7.6,143.9,21.3,212l0,0l-17.3,19.3l0,0
	c-6.6-9.2-10.7-18.8-15.3-28.5c-21.9-57.9-30-121.5-33-187.1l0,0l-37.6,28l0,0c3.6,99.6,22.4,193.7,82.9,268.4
	c11.7-13.2,23.4-26.9,35.1-39.7c6.1,26.9,14.7,52.9,24.9,78.3C321.4,583.1,340.2,622.7,375.8,653.2L375.8,653.2z"/>
<path class="st0" d="M722,165.7l-67.6-16.8l-12.2-45.8L573,86.9l-14.2-49.8L395.6,0L235.5,37.1l-14.2,49.8l-69.1,16.3l0,0
	c-4.6,15.8-8.6,31-12.7,46.3l0,0l-67.6,16.3l0,0C66.7,309.6,106.4,436.2,178,549c52.4,80.8,131.2,166.2,217.6,208.4
	c58.5-28,110.3-74.7,157.1-127.1C666,499.2,728.1,345.7,722,165.7L722,165.7L722,165.7L722,165.7z M522.7,600.9
	c-37.1,41.7-78.8,82.9-125.6,106.8c-44.7-22.4-83.9-61-119.5-100.1c-92.5-108.3-154-229.3-164.2-371.1c-1-11.7-1.5-22.9-1-35.1l0,0
	l57.4-13.2l13.2-47.3l70.7-16.8l0.5-1.5L267,73.7l128.1-30l132.2,30l12.7,49.8l71.7,17.3l12.2,47.3l58,13.2l0,0
	C680.3,355.8,618.8,485.5,522.7,600.9L522.7,600.9L522.7,600.9L522.7,600.9z"/>
<path class="st0" d="M544,751.8c7.6-0.5,12.7-4.6,12.7-13.2c0-9.7-6.1-14.2-17.8-14.2l0,0h-18.3v48.8h8.1v-20.8h7.6l12.7,20.8h8.6
	L544,751.8L544,751.8L544,751.8z M528.8,745.7V731h9.7l0,0c4.6,0,10.2,1,10.2,7.1c0,6.6-5.1,7.6-11.2,7.6l0,0H528.8L528.8,745.7
	L528.8,745.7z"/>
<path class="st0" d="M537.9,708.6c-22.9,0-41.7,18.8-41.7,41.7c0,22.9,18.8,41.7,41.7,41.7c22.9,0,41.7-18.8,41.7-41.7
	C579.6,727.4,560.8,708.6,537.9,708.6L537.9,708.6L537.9,708.6L537.9,708.6z M537.9,787.9c-20.8,0-37.6-16.8-37.6-37.6
	c0-20.8,16.8-37.6,37.6-37.6c20.8,0,37.6,16.8,37.6,37.6C575.6,771.2,558.8,787.9,537.9,787.9L537.9,787.9L537.9,787.9L537.9,787.9z
	"/>
</svg>
